<?xml version="1.0" encoding="UTF-8"?>
<!DOCTYPE svg PUBLIC "-//W3C//DTD SVG 1.1//EN" "http://www.w3.org/Graphics/SVG/1.1/DTD/svg11.dtd">
<svg xmlns="http://www.w3.org/2000/svg" version="1.1" width="950px" height="600px" style="shape-rendering:geometricPrecision; text-rendering:geometricPrecision; image-rendering:optimizeQuality; fill-rule:evenodd; clip-rule:evenodd" xmlns:xlink="http://www.w3.org/1999/xlink">
<g><path style="opacity:1" fill="#0ecc95" d="M -0.5,-0.5 C 316.167,-0.5 632.833,-0.5 949.5,-0.5C 949.5,199.5 949.5,399.5 949.5,599.5C 632.833,599.5 316.167,599.5 -0.5,599.5C -0.5,399.5 -0.5,199.5 -0.5,-0.5 Z"/></g>
<g><path style="opacity:1" fill="#26045c" d="M 197.5,221.5 C 219.191,218.666 238.858,223.499 256.5,236C 261.467,240.8 265.467,246.3 268.5,252.5C 292.237,250.759 306.404,261.425 311,284.5C 311.667,289.833 311.667,295.167 311,300.5C 305.751,303.902 302.585,302.569 301.5,296.5C 288.165,296.889 274.832,297.389 261.5,298C 259.271,309.865 256.771,321.699 254,333.5C 246.713,342.479 238.213,343.813 228.5,337.5C 220.804,342.772 213.138,342.772 205.5,337.5C 197.804,342.772 190.138,342.772 182.5,337.5C 174.633,342.806 166.8,342.806 159,337.5C 146.071,345.078 136.737,342.078 131,328.5C 130.333,326.167 130.333,323.833 131,321.5C 137.667,297.833 145.334,274.499 154,251.5C 164.016,234.915 178.516,224.915 197.5,221.5 Z"/></g>
<g><path style="opacity:1" fill="#26085c" d="M 575.5,223.5 C 584.585,222.888 587.251,226.554 583.5,234.5C 579.142,236.313 575.309,235.647 572,232.5C 570.98,228.553 572.147,225.553 575.5,223.5 Z"/></g>
<g><path style="opacity:1" fill="#26085c" d="M 737.5,223.5 C 741.803,222.796 745.303,224.13 748,227.5C 748.755,230.497 747.922,232.997 745.5,235C 734.232,236.913 731.565,233.08 737.5,223.5 Z"/></g>
<g><path style="opacity:1" fill="#26015b" d="M 769.5,238.5 C 768.596,239.209 768.263,240.209 768.5,241.5C 770.833,241.5 773.167,241.5 775.5,241.5C 775.5,244.5 775.5,247.5 775.5,250.5C 773.167,250.5 770.833,250.5 768.5,250.5C 768.5,260.167 768.5,269.833 768.5,279.5C 764.833,279.5 761.167,279.5 757.5,279.5C 757.5,269.833 757.5,260.167 757.5,250.5C 755.833,250.5 754.167,250.5 752.5,250.5C 752.5,247.5 752.5,244.5 752.5,241.5C 754.099,241.768 755.432,241.434 756.5,240.5C 757.764,229.248 764.097,224.248 775.5,225.5C 775.5,228.833 775.5,232.167 775.5,235.5C 772.687,235.025 770.687,236.025 769.5,238.5 Z"/></g>
<g><path style="opacity:1" fill="#26045c" d="M 552.5,228.5 C 556.5,228.5 560.5,228.5 564.5,228.5C 564.5,245.5 564.5,262.5 564.5,279.5C 560.5,279.5 556.5,279.5 552.5,279.5C 552.662,277.473 552.495,275.473 552,273.5C 548.155,279.667 542.655,281.834 535.5,280C 526.597,276.195 522.597,269.362 523.5,259.5C 524.287,244.452 531.954,238.619 546.5,242C 549,243.167 550.833,245 552,247.5C 552.5,241.175 552.666,234.842 552.5,228.5 Z"/></g>
<g><path style="opacity:1" fill="#26045b" d="M 361.5,230.5 C 366.844,230.334 372.177,230.501 377.5,231C 386.097,232.763 391.097,237.929 392.5,246.5C 385.996,247.478 380.329,245.978 375.5,242C 364.382,239.045 358.382,243.212 357.5,254.5C 359.022,268.763 366.355,272.93 379.5,267C 380.956,265.255 382.289,263.422 383.5,261.5C 378.544,260.506 373.544,260.173 368.5,260.5C 368.5,257.833 368.5,255.167 368.5,252.5C 376.833,252.5 385.167,252.5 393.5,252.5C 394.54,269.467 386.54,278.8 369.5,280.5C 356.904,279.963 349.071,273.63 346,261.5C 343.221,247.059 348.387,236.725 361.5,230.5 Z"/></g>
<g><path style="opacity:1" fill="#25035b" d="M 701.5,230.5 C 705.5,230.5 709.5,230.5 713.5,230.5C 713.5,243.833 713.5,257.167 713.5,270.5C 718.833,270.5 724.167,270.5 729.5,270.5C 729.5,273.5 729.5,276.5 729.5,279.5C 720.167,279.5 710.833,279.5 701.5,279.5C 701.5,263.167 701.5,246.833 701.5,230.5 Z"/></g>
<g><path style="opacity:1" fill="#0fcb95" d="M 198.5,231.5 C 211.836,230.527 224.836,232.027 237.5,236C 245.685,239.85 252.352,245.517 257.5,253C 240.167,253.333 222.833,253.667 205.5,254C 202.887,256.795 202.887,259.629 205.5,262.5C 210.435,263.448 215.435,263.781 220.5,263.5C 220.64,270.643 224.307,274.643 231.5,275.5C 239.392,275.277 243.059,271.277 242.5,263.5C 257.239,263.05 271.905,263.55 286.5,265C 295.307,269.442 299.974,276.609 300.5,286.5C 284.723,286.31 269.056,287.143 253.5,289C 253,289.5 252.5,290 252,290.5C 250.093,302.182 248.093,313.849 246,325.5C 244.41,331.42 240.91,332.92 235.5,330C 234.044,327.734 233.21,325.234 233,322.5C 230,319.833 227,319.833 224,322.5C 223.001,330.554 219.001,332.887 212,329.5C 210.956,327.285 210.29,324.952 210,322.5C 207.668,319.209 204.835,318.709 201.5,321C 201.347,326.493 198.68,329.993 193.5,331.5C 188.923,330.377 186.757,327.377 187,322.5C 184.374,318.928 181.374,318.595 178,321.5C 176.956,323.715 176.29,326.048 176,328.5C 168.851,333.259 164.851,331.259 164,322.5C 161.271,319.136 158.271,318.803 155,321.5C 154.202,324.543 153.035,327.376 151.5,330C 145.657,332.58 142.323,330.747 141.5,324.5C 147.37,299.391 155.536,275.058 166,251.5C 174.419,240.876 185.252,234.209 198.5,231.5 Z"/></g>
<g><path style="opacity:1" fill="#26045b" d="M 456.5,240.5 C 463.555,239.111 469.388,241.111 474,246.5C 474.495,244.527 474.662,242.527 474.5,240.5C 478.5,240.5 482.5,240.5 486.5,240.5C 486.5,253.5 486.5,266.5 486.5,279.5C 482.5,279.5 478.5,279.5 474.5,279.5C 474.662,277.473 474.495,275.473 474,273.5C 472.833,276 471,277.833 468.5,279C 457.489,282.244 449.989,278.41 446,267.5C 443.173,255.784 446.673,246.784 456.5,240.5 Z"/></g>
<g><path style="opacity:1" fill="#26005b" d="M 519.5,240.5 C 519.5,244.5 519.5,248.5 519.5,252.5C 517.585,252.216 515.919,252.549 514.5,253.5C 510.91,253.544 508.41,255.211 507,258.5C 506.5,265.492 506.334,272.492 506.5,279.5C 502.833,279.5 499.167,279.5 495.5,279.5C 495.5,266.833 495.5,254.167 495.5,241.5C 499.167,241.5 502.833,241.5 506.5,241.5C 506.338,243.527 506.505,245.527 507,247.5C 510.102,243.2 514.269,240.867 519.5,240.5 Z"/></g>
<g><path style="opacity:1" fill="#1e4770" d="M 519.5,240.5 C 520.485,244.634 520.818,248.968 520.5,253.5C 518.5,253.5 516.5,253.5 514.5,253.5C 515.919,252.549 517.585,252.216 519.5,252.5C 519.5,248.5 519.5,244.5 519.5,240.5 Z"/></g>
<g><path style="opacity:1" fill="#26045c" d="M 618.5,245.5 C 618.783,246.289 619.283,246.956 620,247.5C 620.495,245.527 620.662,243.527 620.5,241.5C 624.167,241.5 627.833,241.5 631.5,241.5C 631.5,254.167 631.5,266.833 631.5,279.5C 627.833,279.5 624.167,279.5 620.5,279.5C 620.662,277.473 620.495,275.473 620,273.5C 612.109,282.335 603.776,282.668 595,274.5C 588.249,263.015 589.416,252.515 598.5,243C 604.472,239.735 610.472,239.735 616.5,243C 617.381,243.708 618.047,244.542 618.5,245.5 Z"/></g>
<g><path style="opacity:1" fill="#1f3f6d" d="M 640.5,241.5 C 644.298,240.517 648.298,240.183 652.5,240.5C 652.205,242.735 652.539,244.735 653.5,246.5C 653.44,247.043 653.107,247.376 652.5,247.5C 651.534,245.604 651.201,243.604 651.5,241.5C 647.833,241.5 644.167,241.5 640.5,241.5 Z"/></g>
<g><path style="opacity:1" fill="#26035b" d="M 640.5,241.5 C 644.167,241.5 647.833,241.5 651.5,241.5C 651.201,243.604 651.534,245.604 652.5,247.5C 653.107,247.376 653.44,247.043 653.5,246.5C 658.25,240.478 664.25,238.978 671.5,242C 675.058,243.892 677.558,246.725 679,250.5C 679.5,260.161 679.666,269.828 679.5,279.5C 675.5,279.5 671.5,279.5 667.5,279.5C 667.666,271.16 667.5,262.827 667,254.5C 662.428,249.188 657.761,249.188 653,254.5C 652.5,262.827 652.334,271.16 652.5,279.5C 648.5,279.5 644.5,279.5 640.5,279.5C 640.5,266.833 640.5,254.167 640.5,241.5 Z"/></g>
<g><path style="opacity:1" fill="#26055c" d="M 792.5,240.5 C 809.293,238.53 817.96,245.864 818.5,262.5C 809.167,262.5 799.833,262.5 790.5,262.5C 791.328,269.161 794.994,271.661 801.5,270C 802.833,269.333 803.833,268.333 804.5,267C 819.405,263.549 821.405,266.882 810.5,277C 800.427,282.511 791.26,281.344 783,273.5C 775.688,259.165 778.854,248.165 792.5,240.5 Z"/></g>
<g><path style="opacity:1" fill="#26035b" d="M 426.5,263.5 C 427.492,256.352 427.825,249.019 427.5,241.5C 431.167,241.5 434.833,241.5 438.5,241.5C 438.5,254.167 438.5,266.833 438.5,279.5C 434.833,279.5 431.167,279.5 427.5,279.5C 427.851,276.959 427.518,275.292 426.5,274.5C 418.951,282.025 411.117,282.358 403,275.5C 401.438,273.043 400.438,270.376 400,267.5C 399.5,258.506 399.334,249.506 399.5,240.5C 403.5,240.5 407.5,240.5 411.5,240.5C 411.057,249.608 411.557,258.608 413,267.5C 417.632,271.698 421.965,271.364 426,266.5C 426.483,265.552 426.649,264.552 426.5,263.5 Z"/></g>
<g><path style="opacity:1" fill="#1b6277" d="M 438.5,279.5 C 438.5,266.833 438.5,254.167 438.5,241.5C 434.833,241.5 431.167,241.5 427.5,241.5C 427.825,249.019 427.492,256.352 426.5,263.5C 426.5,255.833 426.5,248.167 426.5,240.5C 430.833,240.5 435.167,240.5 439.5,240.5C 439.829,253.677 439.495,266.677 438.5,279.5 Z"/></g>
<g><path style="opacity:1" fill="#203369" d="M 506.5,241.5 C 502.833,241.5 499.167,241.5 495.5,241.5C 495.5,254.167 495.5,266.833 495.5,279.5C 494.505,266.677 494.171,253.677 494.5,240.5C 498.702,240.183 502.702,240.517 506.5,241.5 Z"/></g>
<g><path style="opacity:1" fill="#26045c" d="M 572.5,240.5 C 576.5,240.5 580.5,240.5 584.5,240.5C 584.5,253.5 584.5,266.5 584.5,279.5C 580.5,279.5 576.5,279.5 572.5,279.5C 572.5,266.5 572.5,253.5 572.5,240.5 Z"/></g>
<g><path style="opacity:1" fill="#1d5f76" d="M 620.5,279.5 C 624.167,279.5 627.833,279.5 631.5,279.5C 631.5,266.833 631.5,254.167 631.5,241.5C 627.833,241.5 624.167,241.5 620.5,241.5C 620.662,243.527 620.495,245.527 620,247.5C 619.283,246.956 618.783,246.289 618.5,245.5C 619.451,244.081 619.784,242.415 619.5,240.5C 623.833,240.5 628.167,240.5 632.5,240.5C 632.5,253.833 632.5,267.167 632.5,280.5C 628.298,280.817 624.298,280.483 620.5,279.5 Z"/></g>
<g><path style="opacity:1" fill="#1d6478" d="M 735.5,279.5 C 734.505,266.677 734.171,253.677 734.5,240.5C 738.833,240.5 743.167,240.5 747.5,240.5C 747.5,253.833 747.5,267.167 747.5,280.5C 743.298,280.817 739.298,280.483 735.5,279.5 Z"/></g>
<g><path style="opacity:1" fill="#26005b" d="M 735.5,279.5 C 735.5,266.833 735.5,254.167 735.5,241.5C 739.167,241.5 742.833,241.5 746.5,241.5C 746.5,254.167 746.5,266.833 746.5,279.5C 742.833,279.5 739.167,279.5 735.5,279.5 Z"/></g>
<g><path style="opacity:1" fill="#1d717c" d="M 756.5,240.5 C 755.432,241.434 754.099,241.768 752.5,241.5C 752.5,244.5 752.5,247.5 752.5,250.5C 751.521,247.375 751.187,244.042 751.5,240.5C 753.167,240.5 754.833,240.5 756.5,240.5 Z"/></g>
<g><path style="opacity:1" fill="#1f737c" d="M 769.5,238.5 C 771.279,240.344 773.612,241.01 776.5,240.5C 776.813,244.042 776.479,247.375 775.5,250.5C 775.5,247.5 775.5,244.5 775.5,241.5C 773.167,241.5 770.833,241.5 768.5,241.5C 768.263,240.209 768.596,239.209 769.5,238.5 Z"/></g>
<g><path style="opacity:1" fill="#15c293" d="M 795.5,249.5 C 802.081,248.428 805.414,251.095 805.5,257.5C 800.456,257.827 795.456,257.494 790.5,256.5C 791.804,253.87 793.47,251.537 795.5,249.5 Z"/></g>
<g><path style="opacity:1" fill="#11c694" d="M 463.5,250.5 C 472.453,250.963 475.953,255.63 474,264.5C 471.103,269.155 466.937,270.655 461.5,269C 455.721,262.067 456.388,255.901 463.5,250.5 Z"/></g>
<g><path style="opacity:1" fill="#11c694" d="M 541.5,250.5 C 551.538,251.56 554.704,256.893 551,266.5C 547.662,269.318 543.829,270.151 539.5,269C 535.741,265.257 534.574,260.757 536,255.5C 537.73,253.598 539.563,251.931 541.5,250.5 Z"/></g>
<g><path style="opacity:1" fill="#12c694" d="M 608.5,250.5 C 617.424,250.353 621.257,254.687 620,263.5C 615.478,270.649 610.145,271.315 604,265.5C 603.333,262.167 603.333,258.833 604,255.5C 605.193,253.503 606.693,251.836 608.5,250.5 Z"/></g>
<g><path style="opacity:1" fill="#215072" d="M 752.5,250.5 C 754.167,250.5 755.833,250.5 757.5,250.5C 757.5,260.167 757.5,269.833 757.5,279.5C 761.167,279.5 764.833,279.5 768.5,279.5C 764.702,280.483 760.702,280.817 756.5,280.5C 756.5,270.833 756.5,261.167 756.5,251.5C 754.901,251.768 753.568,251.434 752.5,250.5 Z"/></g>
<g><path style="opacity:1" fill="#158f84" d="M 775.5,250.5 C 773.735,251.461 771.735,251.795 769.5,251.5C 769.827,261.015 769.494,270.348 768.5,279.5C 768.5,269.833 768.5,260.167 768.5,250.5C 770.833,250.5 773.167,250.5 775.5,250.5 Z"/></g>
<g><path style="opacity:1" fill="#19767c" d="M 438.5,279.5 C 434.702,280.483 430.702,280.817 426.5,280.5C 426.5,278.5 426.5,276.5 426.5,274.5C 427.518,275.292 427.851,276.959 427.5,279.5C 431.167,279.5 434.833,279.5 438.5,279.5 Z"/></g>
<g><path style="opacity:1" fill="#270b5d" d="M 494.5,294.5 C 505.216,294.755 507.216,298.922 500.5,307C 493.823,307.987 490.656,305.153 491,298.5C 492.376,297.295 493.542,295.962 494.5,294.5 Z"/></g>
<g><path style="opacity:1" fill="#26035b" d="M 438.5,299.5 C 438.5,316.5 438.5,333.5 438.5,350.5C 434.833,350.5 431.167,350.5 427.5,350.5C 428.229,343.188 426.895,342.688 423.5,349C 407.365,354.085 399.031,348.085 398.5,331C 398.98,315.609 406.647,309.609 421.5,313C 424,314.167 425.833,316 427,318.5C 427.5,312.175 427.666,305.842 427.5,299.5C 431.167,299.5 434.833,299.5 438.5,299.5 Z"/></g>
<g><path style="opacity:1" fill="#20436e" d="M 438.5,299.5 C 439.497,316.659 439.83,333.992 439.5,351.5C 435.298,351.817 431.298,351.483 427.5,350.5C 431.167,350.5 434.833,350.5 438.5,350.5C 438.5,333.5 438.5,316.5 438.5,299.5 Z"/></g>
<g><path style="opacity:1" fill="#26045b" d="M 394.5,349.5 C 390.702,350.483 386.702,350.817 382.5,350.5C 381.798,347.56 380.798,344.727 379.5,342C 373.175,341.5 366.842,341.334 360.5,341.5C 359.833,344.5 359.167,347.5 358.5,350.5C 354.154,350.666 349.821,350.499 345.5,350C 351.397,334.144 357.397,318.311 363.5,302.5C 368.167,301.167 372.833,301.167 377.5,302.5C 383.371,318.114 389.037,333.781 394.5,349.5 Z"/></g>
<g><path style="opacity:1" fill="#26065c" d="M 519.5,311.5 C 530.776,309.292 538.776,313.292 543.5,323.5C 537.526,325.691 532.526,324.524 528.5,320C 525.132,318.795 522.798,319.795 521.5,323C 521.759,324.261 522.426,325.261 523.5,326C 528.167,327.333 532.833,328.667 537.5,330C 545.525,334.815 546.525,340.815 540.5,348C 527.245,355.097 517.245,352.097 510.5,339C 514.541,338.173 518.541,338.34 522.5,339.5C 525.926,344.392 529.259,344.559 532.5,340C 532.415,338.893 532.081,337.893 531.5,337C 526.833,335.667 522.167,334.333 517.5,333C 511.766,329.82 509.933,324.987 512,318.5C 513.742,315.254 516.242,312.921 519.5,311.5 Z"/></g>
<g><path style="opacity:1" fill="#26075c" d="M 562.5,311.5 C 585.628,311.112 593.461,321.779 586,343.5C 577.343,352.29 567.509,353.79 556.5,348C 545.902,336.969 545.902,325.969 556.5,315C 558.727,314.059 560.727,312.892 562.5,311.5 Z"/></g>
<g><path style="opacity:1" fill="#26055c" d="M 633.5,311.5 C 644.776,309.292 652.776,313.292 657.5,323.5C 651.526,325.691 646.526,324.524 642.5,320C 639.132,318.795 636.798,319.795 635.5,323C 635.759,324.261 636.426,325.261 637.5,326C 642.167,327.333 646.833,328.667 651.5,330C 659.525,334.815 660.525,340.815 654.5,348C 641.245,355.097 631.245,352.097 624.5,339C 628.541,338.173 632.541,338.34 636.5,339.5C 640.124,344.509 643.79,344.676 647.5,340C 647.241,338.739 646.574,337.739 645.5,337C 640.062,335.641 634.728,333.974 629.5,332C 625.741,328.257 624.574,323.757 626,318.5C 627.742,315.254 630.242,312.921 633.5,311.5 Z"/></g>
<g><path style="opacity:1" fill="#26075c" d="M 444.5,311.5 C 448.767,311.203 452.934,311.536 457,312.5C 459.738,320.88 462.571,329.213 465.5,337.5C 468.77,329.022 471.437,320.355 473.5,311.5C 477.884,311.174 482.217,311.508 486.5,312.5C 481.76,325.053 477.427,337.719 473.5,350.5C 468.167,350.5 462.833,350.5 457.5,350.5C 453.368,337.438 449.035,324.438 444.5,311.5 Z"/></g>
<g><path style="opacity:1" fill="#233d6c" d="M 503.5,312.5 C 499.833,312.5 496.167,312.5 492.5,312.5C 492.5,325.167 492.5,337.833 492.5,350.5C 496.167,350.5 499.833,350.5 503.5,350.5C 499.702,351.483 495.702,351.817 491.5,351.5C 491.5,338.167 491.5,324.833 491.5,311.5C 495.702,311.183 499.702,311.517 503.5,312.5 Z"/></g>
<g><path style="opacity:1" fill="#26005b" d="M 503.5,312.5 C 503.5,325.167 503.5,337.833 503.5,350.5C 499.833,350.5 496.167,350.5 492.5,350.5C 492.5,337.833 492.5,325.167 492.5,312.5C 496.167,312.5 499.833,312.5 503.5,312.5 Z"/></g>
<g><path style="opacity:1" fill="#26035b" d="M 595.5,311.5 C 599.5,311.5 603.5,311.5 607.5,311.5C 607.337,313.857 607.503,316.19 608,318.5C 611.102,314.2 615.269,311.867 620.5,311.5C 620.5,315.833 620.5,320.167 620.5,324.5C 616.161,323.846 612.327,324.846 609,327.5C 607.568,335.054 607.068,342.721 607.5,350.5C 603.5,350.5 599.5,350.5 595.5,350.5C 595.5,337.5 595.5,324.5 595.5,311.5 Z"/></g>
<g><path style="opacity:1" fill="#13c393" d="M 375.5,330.5 C 372.316,332.414 368.649,333.08 364.5,332.5C 365.827,326.686 367.66,321.019 370,315.5C 372.326,320.31 374.159,325.31 375.5,330.5 Z"/></g>
<g><path style="opacity:1" fill="#12c594" d="M 416.5,321.5 C 424.962,321.797 428.462,326.13 427,334.5C 424.646,340.095 420.479,341.928 414.5,340C 410.741,336.257 409.574,331.757 411,326.5C 412.406,324.256 414.239,322.59 416.5,321.5 Z"/></g>
<g><path style="opacity:1" fill="#12c594" d="M 566.5,321.5 C 574.942,321.78 578.442,326.113 577,334.5C 574.983,339.924 571.15,341.758 565.5,340C 563.667,339.5 562.5,338.333 562,336.5C 561.333,333.167 561.333,329.833 562,326.5C 563.025,324.313 564.525,322.646 566.5,321.5 Z"/></g>
<g><path style="opacity:1" fill="#1f4a70" d="M 375.5,330.5 C 376.404,331.209 376.737,332.209 376.5,333.5C 372.298,333.817 368.298,333.483 364.5,332.5C 368.649,333.08 372.316,332.414 375.5,330.5 Z"/></g>
<g><path style="opacity:1" fill="#196e7a" d="M 394.5,349.5 C 395.043,349.56 395.376,349.893 395.5,350.5C 391.016,351.811 386.683,351.811 382.5,350.5C 386.702,350.817 390.702,350.483 394.5,349.5 Z"/></g>
</svg>
