<svg xmlns="http://www.w3.org/2000/svg" xmlns:xlink="http://www.w3.org/1999/xlink" width="500" zoomAndPan="magnify" viewBox="0 0 375 374.999991" height="500" preserveAspectRatio="xMidYMid meet" version="1.0"><defs><clipPath id="d25cb50a55"><path d="M 20 23.46875 L 330 23.46875 L 330 343 L 20 343 Z M 20 23.46875 " clip-rule="nonzero"/></clipPath><clipPath id="dbc0d7a9eb"><path d="M 262 39 L 342 39 L 342 351.21875 L 262 351.21875 Z M 262 39 " clip-rule="nonzero"/></clipPath><clipPath id="ee0c913c21"><path d="M 293.082031 270.488281 L 306 270.488281 L 306 304.238281 L 293.082031 304.238281 Z M 293.082031 270.488281 " clip-rule="nonzero"/></clipPath><clipPath id="c2ac3a6420"><path d="M 305 270.488281 L 317.082031 270.488281 L 317.082031 304.238281 L 305 304.238281 Z M 305 270.488281 " clip-rule="nonzero"/></clipPath><clipPath id="89dec3c0ea"><path d="M 59.058594 33.625 L 72 33.625 L 72 67.375 L 59.058594 67.375 Z M 59.058594 33.625 " clip-rule="nonzero"/></clipPath><clipPath id="a90d54a966"><path d="M 71 33.625 L 83.058594 33.625 L 83.058594 67.375 L 71 67.375 Z M 71 33.625 " clip-rule="nonzero"/></clipPath><clipPath id="f21e435cea"><path d="M 308.886719 204.917969 L 321 204.917969 L 321 238.667969 L 308.886719 238.667969 Z M 308.886719 204.917969 " clip-rule="nonzero"/></clipPath><clipPath id="2752f3de18"><path d="M 320 204.917969 L 332.886719 204.917969 L 332.886719 238.667969 L 320 238.667969 Z M 320 204.917969 " clip-rule="nonzero"/></clipPath><clipPath id="3a98813f18"><path d="M 304.90625 243.25 L 317 243.25 L 317 277 L 304.90625 277 Z M 304.90625 243.25 " clip-rule="nonzero"/></clipPath><clipPath id="d76dc1ffb9"><path d="M 316 243.25 L 328.90625 243.25 L 328.90625 277 L 316 277 Z M 316 243.25 " clip-rule="nonzero"/></clipPath></defs><path fill="#374f4b" d="M 38.175781 57.507812 L 25.484375 48.101562 C 25.550781 48.148438 25.613281 48.195312 25.675781 48.242188 L 38.367188 57.648438 C 38.304688 57.601562 38.242188 57.554688 38.175781 57.507812 " fill-opacity="1" fill-rule="nonzero"/><path fill="#374f4b" d="M 40.074219 84.953125 L 27.382812 75.546875 C 28.523438 76.390625 30.039062 76.855469 31.882812 76.839844 L 44.574219 86.246094 C 42.730469 86.265625 41.214844 85.796875 40.074219 84.953125 " fill-opacity="1" fill-rule="nonzero"/><path fill="#374f4b" d="M 103.160156 81.765625 L 115.851562 91.171875 C 110.710938 87.433594 104.890625 84.539062 98.546875 82.582031 C 92.273438 80.636719 85.636719 79.65625 78.824219 79.65625 C 71.386719 79.65625 63.957031 80.824219 56.738281 83.132812 C 56.214844 83.300781 55.683594 83.476562 55.152344 83.648438 C 51.949219 84.699219 48.316406 85.894531 44.574219 86.246094 L 31.882812 76.839844 C 35.625 76.484375 39.257812 75.292969 42.460938 74.242188 C 42.992188 74.066406 43.523438 73.890625 44.046875 73.726562 C 51.265625 71.417969 58.695312 70.246094 66.132812 70.246094 C 72.945312 70.246094 79.582031 71.230469 85.855469 73.171875 C 92.199219 75.132812 98.019531 78.023438 103.160156 81.765625 " fill-opacity="1" fill-rule="nonzero"/><path fill="#374f4b" d="M 145.847656 24.683594 L 158.539062 34.089844 C 159.566406 34.851562 160.351562 35.949219 160.761719 37.285156 C 162.035156 41.398438 163.304688 45.511719 164.578125 49.632812 L 151.882812 40.222656 C 150.613281 36.105469 149.34375 31.992188 148.070312 27.878906 C 147.660156 26.542969 146.878906 25.445312 145.847656 24.683594 " fill-opacity="1" fill-rule="nonzero"/><path fill="#374f4b" d="M 183.378906 91.410156 L 196.070312 100.820312 C 192.621094 98.261719 188.78125 96.855469 185.058594 96.855469 C 184.164062 96.855469 183.269531 96.9375 182.394531 97.097656 C 176.484375 98.191406 170.648438 102.863281 164.472656 107.8125 C 162.035156 109.765625 159.515625 111.78125 156.894531 113.660156 C 152.386719 116.890625 145.558594 120.746094 138.660156 120.746094 C 135.953125 120.746094 133.457031 120.15625 131.242188 118.996094 C 130.503906 118.605469 129.816406 118.171875 129.179688 117.699219 L 116.488281 108.289062 C 117.125 108.761719 117.808594 109.199219 118.550781 109.585938 C 120.765625 110.75 123.261719 111.339844 125.96875 111.339844 C 132.863281 111.339844 139.695312 107.484375 144.203125 104.25 C 146.824219 102.375 149.34375 100.355469 151.78125 98.402344 C 157.957031 93.453125 163.792969 88.78125 169.703125 87.691406 C 170.574219 87.53125 171.472656 87.449219 172.367188 87.449219 C 176.089844 87.449219 179.929688 88.855469 183.378906 91.410156 " fill-opacity="1" fill-rule="nonzero"/><path fill="#374f4b" d="M 222.863281 215.742188 L 210.171875 206.335938 C 211.296875 207.171875 212.5625 207.503906 213.835938 207.84375 L 226.527344 217.25 C 225.253906 216.914062 223.988281 216.578125 222.863281 215.742188 " fill-opacity="1" fill-rule="nonzero"/><path fill="#374f4b" d="M 253.324219 306.898438 L 266.015625 316.304688 C 265.425781 315.867188 264.742188 315.425781 264.03125 314.96875 C 263.214844 314.445312 262.308594 313.859375 261.398438 313.1875 L 248.707031 303.78125 C 249.617188 304.457031 250.519531 305.039062 251.339844 305.5625 C 252.050781 306.019531 252.734375 306.457031 253.324219 306.898438 " fill-opacity="1" fill-rule="nonzero"/><g clip-path="url(#d25cb50a55)"><path fill="#374f4b" d="M 113.292969 23.46875 C 141.964844 23.46875 142.179688 23.476562 142.480469 23.492188 C 145.132812 23.636719 147.28125 25.320312 148.070312 27.878906 C 149.34375 31.992188 150.613281 36.105469 151.882812 40.222656 C 169.730469 41.378906 187.5625 42.527344 205.390625 43.679688 C 222.839844 44.804688 240.285156 45.929688 257.734375 47.058594 C 258.832031 47.128906 259.820312 47.457031 260.664062 47.988281 C 260.757812 47.566406 260.859375 47.140625 260.980469 46.710938 C 262.140625 42.484375 264.335938 39.148438 267.5 36.800781 C 270.160156 34.828125 273.140625 33.824219 276.34375 33.824219 C 279.542969 33.824219 282.382812 34.832031 284.890625 35.71875 C 286.351562 36.238281 287.863281 36.773438 288.921875 36.890625 C 294.902344 37.566406 299.164062 42.296875 299.53125 48.664062 C 299.785156 52.996094 300.203125 57.386719 300.605469 61.632812 C 301.910156 75.28125 300.992188 89.722656 300.109375 103.6875 C 298.484375 129.332031 296.953125 153.550781 308.566406 171.058594 C 317.273438 184.171875 323.316406 199.226562 326.53125 215.796875 C 329.75 232.371094 329.957031 249.511719 327.140625 266.746094 C 326.976562 267.75 326.8125 268.855469 326.632812 270.027344 C 325.304688 278.875 323.648438 289.882812 317.734375 297.664062 C 316.738281 298.976562 315.707031 300.109375 314.792969 301.109375 C 314.164062 301.800781 313.566406 302.457031 313.101562 303.042969 C 311.414062 305.167969 310.167969 308.027344 309.386719 311.558594 C 309.207031 312.351562 309.132812 313.734375 309.0625 315.070312 C 308.886719 318.222656 308.675781 322.140625 306.882812 325.851562 C 304.519531 330.746094 299.160156 334.835938 296.179688 336.835938 C 290.894531 340.386719 284.933594 342.113281 277.957031 342.113281 C 275.917969 342.113281 273.808594 341.96875 271.5 341.667969 C 266.492188 341.019531 262.851562 339.273438 260.375 336.335938 C 256.285156 331.464844 256.503906 324.6875 257.023438 320.011719 C 257.8125 312.882812 257.214844 310.3125 254.097656 307.523438 C 253.371094 306.871094 252.386719 306.234375 251.339844 305.5625 C 250.28125 304.882812 249.078125 304.109375 247.910156 303.164062 C 241.957031 298.363281 239.132812 291.078125 236.859375 285.226562 C 233.351562 276.191406 218.972656 239.171875 215.292969 229.699219 C 213.703125 225.613281 211.527344 220.019531 212.328125 213.445312 C 212.558594 211.589844 213.070312 209.6875 213.835938 207.84375 C 212.171875 207.402344 210.527344 206.964844 209.183594 205.417969 C 207.6875 203.683594 207.199219 201.375 207.746094 198.546875 C 208.042969 194.253906 208.886719 191.089844 209.632812 188.300781 C 209.996094 186.925781 210.34375 185.628906 210.582031 184.40625 C 211.167969 181.394531 211.753906 178.378906 212.34375 175.363281 C 212.914062 172.449219 213.480469 169.535156 214.046875 166.621094 C 214.496094 164.335938 215.113281 161.925781 215.71875 159.597656 C 216.8125 155.347656 217.945312 150.957031 217.882812 147.921875 C 217.738281 141.03125 213.617188 136.121094 208.851562 130.4375 C 205.460938 126.394531 201.953125 122.214844 199.488281 116.855469 C 199.082031 115.964844 198.675781 115.070312 198.265625 114.175781 C 195.023438 107.046875 191.964844 100.3125 187.402344 95.128906 C 183.101562 90.25 177.621094 87.449219 172.367188 87.449219 C 171.472656 87.449219 170.574219 87.53125 169.703125 87.691406 C 163.792969 88.78125 157.957031 93.453125 151.78125 98.402344 C 149.34375 100.355469 146.824219 102.375 144.203125 104.25 C 139.695312 107.484375 132.863281 111.339844 125.96875 111.339844 C 123.261719 111.339844 120.765625 110.75 118.550781 109.585938 C 111.464844 105.859375 109.359375 98.0625 107.671875 91.796875 C 106.503906 87.476562 105.40625 83.398438 103.160156 81.765625 C 98.019531 78.023438 92.199219 75.132812 85.855469 73.171875 C 79.582031 71.230469 72.945312 70.246094 66.132812 70.246094 C 58.695312 70.246094 51.265625 71.417969 44.046875 73.726562 C 43.523438 73.890625 42.992188 74.066406 42.460938 74.242188 C 39.257812 75.292969 35.625 76.484375 31.882812 76.839844 C 28.535156 76.871094 26.269531 75.308594 25.355469 72.765625 C 23.847656 68.554688 25.84375 64.605469 27.265625 62.328125 C 26.355469 59.015625 27.261719 55.769531 27.84375 53.699219 C 27.019531 51.777344 26.527344 50.449219 26.125 49.378906 C 25.984375 49 25.800781 48.503906 25.675781 48.242188 C 24.824219 47.613281 23.859375 46.902344 22.984375 45.761719 C 19.273438 40.917969 21.414062 34.328125 22.21875 31.84375 C 23.664062 27.417969 27.164062 24.179688 31.140625 23.570312 C 31.503906 23.511719 31.863281 23.484375 32.222656 23.484375 C 32.707031 23.484375 81.105469 23.46875 113.292969 23.46875 " fill-opacity="1" fill-rule="nonzero"/></g><g clip-path="url(#dbc0d7a9eb)"><path fill="#374f4b" d="M 294.644531 39.109375 L 307.335938 48.515625 C 310.171875 50.617188 311.992188 54.011719 312.222656 58.070312 C 312.476562 62.402344 312.894531 66.792969 313.300781 71.039062 C 314.601562 84.6875 313.683594 99.128906 312.800781 113.09375 C 311.175781 138.738281 309.644531 162.957031 321.257812 180.464844 C 329.964844 193.582031 336.007812 208.632812 339.222656 225.203125 C 342.441406 241.777344 342.648438 258.917969 339.832031 276.152344 C 339.667969 277.15625 339.503906 278.261719 339.324219 279.433594 C 337.996094 288.28125 336.339844 299.292969 330.425781 307.070312 C 329.429688 308.382812 328.398438 309.515625 327.484375 310.515625 C 326.855469 311.207031 326.257812 311.863281 325.792969 312.449219 C 324.105469 314.574219 322.855469 317.433594 322.078125 320.964844 C 321.898438 321.757812 321.824219 323.140625 321.753906 324.476562 C 321.578125 327.628906 321.367188 331.550781 319.574219 335.257812 C 317.210938 340.152344 311.851562 344.242188 308.871094 346.242188 C 303.585938 349.792969 297.625 351.523438 290.648438 351.523438 C 288.609375 351.523438 286.5 351.375 284.191406 351.078125 C 280.523438 350.597656 277.585938 349.535156 275.304688 347.84375 L 262.613281 338.4375 C 264.894531 340.128906 267.832031 341.195312 271.5 341.667969 C 273.808594 341.96875 275.917969 342.113281 277.957031 342.113281 C 284.933594 342.113281 290.894531 340.386719 296.179688 336.835938 C 299.160156 334.835938 304.519531 330.746094 306.882812 325.851562 C 308.675781 322.140625 308.886719 318.222656 309.0625 315.070312 C 309.132812 313.734375 309.207031 312.351562 309.386719 311.558594 C 310.167969 308.027344 311.414062 305.167969 313.101562 303.042969 C 313.566406 302.457031 314.164062 301.800781 314.792969 301.109375 C 315.707031 300.109375 316.738281 298.976562 317.734375 297.664062 C 323.648438 289.882812 325.304688 278.875 326.632812 270.027344 C 326.8125 268.855469 326.976562 267.75 327.140625 266.746094 C 329.957031 249.511719 329.75 232.371094 326.53125 215.796875 C 323.316406 199.226562 317.273438 184.171875 308.566406 171.058594 C 296.953125 153.550781 298.484375 129.332031 300.109375 103.6875 C 300.992188 89.722656 301.910156 75.28125 300.605469 61.632812 C 300.203125 57.386719 299.785156 52.996094 299.53125 48.664062 C 299.300781 44.605469 297.480469 41.210938 294.644531 39.109375 " fill-opacity="1" fill-rule="nonzero"/></g><path fill="#c3d3ff" d="M 42.558594 81.753906 L 29.867188 72.347656 C 30.4375 72.769531 31.195312 73.003906 32.117188 72.996094 L 44.808594 82.402344 C 43.886719 82.410156 43.128906 82.179688 42.558594 81.753906 " fill-opacity="1" fill-rule="nonzero"/><path fill="#c3d3ff" d="M 105.574219 78.488281 L 118.265625 87.898438 C 112.859375 83.960938 106.738281 80.921875 100.078125 78.863281 C 93.496094 76.828125 86.535156 75.792969 79.390625 75.792969 C 71.578125 75.792969 63.769531 77.023438 56.179688 79.449219 C 55.644531 79.625 55.105469 79.800781 54.5625 79.976562 C 51.402344 81.015625 48.136719 82.085938 44.808594 82.402344 L 32.117188 72.996094 C 35.445312 72.679688 38.710938 71.605469 41.871094 70.570312 C 42.414062 70.394531 42.953125 70.214844 43.488281 70.042969 C 51.078125 67.617188 58.886719 66.386719 66.699219 66.386719 C 73.84375 66.386719 80.804688 67.417969 87.386719 69.457031 C 94.046875 71.511719 100.164062 74.554688 105.574219 78.488281 " fill-opacity="1" fill-rule="nonzero"/><path fill="#c3d3ff" d="M 143.449219 27.945312 L 156.136719 37.351562 C 156.652344 37.734375 157.042969 38.28125 157.25 38.949219 C 158.59375 43.304688 159.941406 47.664062 161.289062 52.023438 C 161.382812 52.339844 161.601562 53.039062 161.757812 53.285156 L 149.066406 43.878906 C 148.910156 43.632812 148.691406 42.933594 148.597656 42.617188 C 147.25 38.253906 145.902344 33.898438 144.558594 29.539062 C 144.351562 28.875 143.960938 28.328125 143.449219 27.945312 " fill-opacity="1" fill-rule="nonzero"/><path fill="#c3d3ff" d="M 185.828125 88.171875 L 198.519531 97.578125 C 194.53125 94.621094 190.035156 92.996094 185.625 92.996094 C 184.515625 92.996094 183.402344 93.097656 182.308594 93.300781 C 175.398438 94.570312 169.148438 99.578125 162.535156 104.875 C 160.148438 106.789062 157.675781 108.769531 155.15625 110.574219 C 151.136719 113.453125 145.113281 116.886719 139.222656 116.886719 C 137.050781 116.886719 135.050781 116.417969 133.289062 115.492188 C 132.691406 115.175781 132.136719 114.824219 131.621094 114.441406 L 118.929688 105.035156 C 119.445312 105.417969 120 105.769531 120.597656 106.082031 C 122.359375 107.011719 124.359375 107.480469 126.53125 107.480469 C 132.421875 107.480469 138.445312 104.046875 142.464844 101.167969 C 144.984375 99.363281 147.457031 97.382812 149.84375 95.46875 C 156.457031 90.171875 162.707031 85.167969 169.617188 83.890625 C 170.710938 83.691406 171.824219 83.589844 172.933594 83.589844 C 177.34375 83.589844 181.839844 85.214844 185.828125 88.171875 " fill-opacity="1" fill-rule="nonzero"/><path fill="#c3d3ff" d="M 258.628906 51.5 L 271.320312 60.90625 C 272.226562 61.582031 272.726562 62.753906 272.5625 64.09375 C 272.136719 67.535156 272.675781 69.847656 273.308594 70.316406 L 260.617188 60.910156 C 259.980469 60.4375 259.445312 58.128906 259.871094 54.683594 C 260.035156 53.347656 259.535156 52.171875 258.628906 51.5 " fill-opacity="1" fill-rule="nonzero"/><path fill="#c3d3ff" d="M 219.605469 204.523438 L 232.296875 213.925781 C 231.730469 213.507812 230.609375 213.695312 229.597656 213.695312 C 228.96875 213.695312 228.410156 213.625 227.886719 213.484375 C 227.066406 213.269531 226.066406 213.003906 225.277344 212.417969 L 212.585938 203.011719 C 213.375 203.597656 214.375 203.859375 215.199219 204.078125 C 215.71875 204.21875 216.277344 204.289062 216.90625 204.289062 C 217.917969 204.289062 219.039062 204.101562 219.605469 204.523438 " fill-opacity="1" fill-rule="nonzero"/><path fill="#c3d3ff" d="M 255.765625 303.644531 L 268.457031 313.050781 C 267.789062 312.554688 267.058594 312.085938 266.304688 311.597656 C 265.488281 311.074219 264.65625 310.539062 263.832031 309.929688 L 251.140625 300.519531 C 251.964844 301.132812 252.796875 301.667969 253.613281 302.191406 C 254.367188 302.679688 255.097656 303.148438 255.765625 303.644531 " fill-opacity="1" fill-rule="nonzero"/><path fill="#c3d3ff" d="M 112.757812 27.328125 C 141.339844 27.328125 141.585938 27.339844 141.761719 27.351562 C 143.089844 27.421875 144.164062 28.261719 144.558594 29.539062 C 145.902344 33.898438 147.25 38.253906 148.597656 42.617188 C 148.691406 42.933594 148.910156 43.632812 149.066406 43.878906 C 149.320312 43.960938 149.964844 44 150.25 44.019531 C 168.503906 45.199219 186.75 46.375 204.992188 47.554688 C 222.324219 48.671875 239.652344 49.789062 256.980469 50.910156 C 258.859375 51.03125 260.121094 52.671875 259.871094 54.683594 C 259.398438 58.519531 260.117188 60.945312 260.835938 61 C 262.363281 59.757812 263.277344 57.398438 263.449219 55.351562 C 263.480469 54.964844 263.507812 54.574219 263.539062 54.179688 C 263.878906 49.6875 264.34375 43.542969 269.332031 39.84375 C 271.261719 38.410156 273.441406 37.683594 275.8125 37.683594 C 278.441406 37.683594 280.898438 38.554688 283.273438 39.398438 C 284.976562 40 286.585938 40.570312 288.011719 40.730469 C 292.4375 41.230469 295.59375 44.738281 295.867188 49.464844 C 296.121094 53.867188 296.542969 58.292969 296.953125 62.574219 C 298.222656 75.917969 297.316406 90.199219 296.445312 104.011719 C 295.636719 116.761719 294.800781 129.949219 295.765625 141.894531 C 296.839844 155.15625 299.917969 165.222656 305.453125 173.5625 C 313.917969 186.320312 319.796875 200.964844 322.929688 217.089844 C 326.058594 233.21875 326.257812 249.898438 323.519531 266.660156 C 323.351562 267.6875 323.183594 268.808594 323.007812 269.996094 C 321.753906 278.335938 320.191406 288.71875 315 295.554688 C 314.128906 296.699219 313.214844 297.699219 312.328125 298.671875 C 311.636719 299.429688 310.988281 300.140625 310.421875 300.859375 C 308.292969 303.539062 306.742188 307.027344 305.8125 311.238281 C 305.558594 312.367188 305.480469 313.851562 305.394531 315.429688 C 305.234375 318.339844 305.054688 321.640625 303.652344 324.542969 C 301.703125 328.582031 296.640625 332.273438 294.550781 333.675781 C 289.96875 336.757812 284.722656 338.253906 278.523438 338.253906 C 276.632812 338.253906 274.664062 338.117188 272.5 337.835938 C 268.289062 337.292969 265.28125 335.890625 263.3125 333.550781 C 260.042969 329.660156 260.257812 323.886719 260.703125 319.882812 C 261.515625 312.550781 261.132812 308.367188 256.746094 304.4375 C 255.84375 303.625 254.757812 302.929688 253.613281 302.191406 C 252.566406 301.515625 251.484375 300.824219 250.4375 299.980469 C 245.117188 295.6875 242.460938 288.839844 240.328125 283.335938 C 236.792969 274.246094 222.417969 237.222656 218.757812 227.808594 C 217.226562 223.871094 215.320312 218.96875 216.003906 213.359375 C 216.378906 210.3125 217.726562 207.121094 219.703125 204.605469 C 219.175781 204.078125 217.980469 204.289062 216.90625 204.289062 C 216.277344 204.289062 215.71875 204.21875 215.199219 204.078125 C 213.34375 203.585938 210.585938 202.855469 211.375 198.746094 C 211.4375 198.40625 211.515625 198.015625 211.550781 197.390625 C 211.71875 194.328125 212.46875 191.519531 213.195312 188.804688 C 213.578125 187.355469 213.945312 185.988281 214.210938 184.625 C 214.796875 181.613281 215.382812 178.605469 215.96875 175.59375 C 216.539062 172.671875 217.105469 169.753906 217.675781 166.832031 C 218.09375 164.675781 218.675781 162.4375 219.285156 160.0625 C 220.453125 155.539062 221.664062 150.859375 221.589844 147.269531 C 221.414062 139.128906 216.742188 133.554688 211.792969 127.660156 C 208.53125 123.773438 205.160156 119.75 202.875 114.78125 C 202.46875 113.894531 202.066406 113.003906 201.660156 112.113281 C 198.464844 105.085938 195.164062 97.820312 190.296875 92.296875 C 185.421875 86.761719 179.09375 83.589844 172.933594 83.589844 C 171.824219 83.589844 170.710938 83.691406 169.617188 83.890625 C 162.707031 85.167969 156.457031 90.171875 149.84375 95.46875 C 147.457031 97.382812 144.984375 99.363281 142.464844 101.167969 C 138.445312 104.046875 132.421875 107.480469 126.53125 107.480469 C 124.359375 107.480469 122.359375 107.011719 120.597656 106.082031 C 114.679688 102.972656 112.859375 96.214844 111.25 90.253906 C 109.933594 85.371094 108.6875 80.757812 105.574219 78.488281 C 100.164062 74.554688 94.046875 71.511719 87.386719 69.457031 C 80.804688 67.417969 73.84375 66.386719 66.699219 66.386719 C 58.886719 66.386719 51.078125 67.617188 43.488281 70.042969 C 42.953125 70.214844 42.414062 70.394531 41.871094 70.570312 C 38.710938 71.605469 35.445312 72.679688 32.117188 72.996094 C 30.445312 73.011719 29.308594 72.230469 28.855469 70.957031 C 27.746094 67.871094 29.703125 64.933594 30.871094 63.175781 C 29.960938 59.351562 30.789062 56.40625 31.390625 54.257812 C 31.609375 53.488281 31.96875 52.199219 31.875 51.867188 C 30.386719 49.621094 29.972656 48.511719 29.609375 47.535156 C 29.265625 46.609375 28.941406 45.738281 28.535156 45.335938 C 27.324219 44.398438 26.617188 43.882812 26.007812 43.078125 C 23.40625 39.6875 24.964844 34.882812 25.714844 32.574219 C 26.636719 29.746094 28.71875 27.761719 31.148438 27.386719 C 32.175781 27.34375 80.570312 27.328125 112.757812 27.328125 " fill-opacity="1" fill-rule="nonzero"/><path fill="#c3d3ff" d="M 292.238281 42.371094 L 304.933594 51.777344 C 307.035156 53.335938 308.382812 55.855469 308.558594 58.871094 C 308.8125 63.273438 309.234375 67.699219 309.644531 71.980469 C 310.914062 85.324219 310.007812 99.605469 309.136719 113.417969 C 308.328125 126.171875 307.492188 139.355469 308.457031 151.296875 C 309.53125 164.5625 312.605469 174.628906 318.140625 182.96875 C 326.609375 195.726562 332.488281 210.371094 335.621094 226.5 C 338.75 242.628906 338.949219 259.304688 336.210938 276.066406 C 336.046875 277.097656 335.878906 278.21875 335.699219 279.402344 C 334.445312 287.746094 332.886719 298.128906 327.691406 304.957031 C 326.824219 306.105469 325.90625 307.109375 325.019531 308.078125 C 324.328125 308.835938 323.679688 309.550781 323.113281 310.265625 C 320.984375 312.945312 319.433594 316.433594 318.503906 320.644531 C 318.25 321.773438 318.171875 323.257812 318.085938 324.835938 C 317.925781 327.75 317.746094 331.050781 316.34375 333.949219 C 314.394531 337.988281 309.332031 341.683594 307.242188 343.082031 C 302.660156 346.164062 297.414062 347.664062 291.214844 347.664062 C 289.324219 347.664062 287.355469 347.523438 285.191406 347.242188 C 282.0625 346.839844 279.601562 345.960938 277.734375 344.578125 L 265.042969 335.167969 C 266.910156 336.554688 269.371094 337.429688 272.5 337.835938 C 274.664062 338.117188 276.632812 338.253906 278.523438 338.253906 C 284.722656 338.253906 289.96875 336.757812 294.550781 333.675781 C 296.640625 332.273438 301.703125 328.582031 303.652344 324.542969 C 305.054688 321.640625 305.234375 318.339844 305.394531 315.429688 C 305.480469 313.851562 305.558594 312.367188 305.8125 311.238281 C 306.742188 307.027344 308.292969 303.539062 310.421875 300.859375 C 310.988281 300.140625 311.636719 299.429688 312.328125 298.671875 C 313.214844 297.699219 314.128906 296.699219 315 295.554688 C 320.191406 288.71875 321.753906 278.335938 323.007812 269.996094 C 323.183594 268.808594 323.351562 267.6875 323.519531 266.660156 C 326.257812 249.898438 326.058594 233.21875 322.929688 217.089844 C 319.796875 200.964844 313.917969 186.320312 305.453125 173.5625 C 299.917969 165.222656 296.839844 155.15625 295.765625 141.894531 C 294.800781 129.949219 295.636719 116.761719 296.445312 104.011719 C 297.316406 90.199219 298.222656 75.917969 296.953125 62.574219 C 296.542969 58.292969 296.121094 53.867188 295.867188 49.464844 C 295.691406 46.449219 294.34375 43.929688 292.238281 42.371094 " fill-opacity="1" fill-rule="nonzero"/><path fill="#2662ff" d="M 38.414062 78.765625 L 29.953125 72.496094 C 30.523438 72.917969 31.28125 73.152344 32.203125 73.144531 L 40.664062 79.414062 C 39.742188 79.421875 38.984375 79.1875 38.414062 78.765625 " fill-opacity="1" fill-rule="nonzero"/><path fill="#2662ff" d="M 105.660156 78.636719 L 114.121094 84.910156 C 108.714844 80.972656 102.59375 77.933594 95.933594 75.875 C 89.351562 73.839844 82.390625 72.804688 75.246094 72.804688 C 67.433594 72.804688 59.625 74.035156 52.035156 76.460938 C 51.5 76.632812 50.960938 76.8125 50.417969 76.988281 C 47.257812 78.027344 43.992188 79.097656 40.664062 79.414062 L 32.203125 73.144531 C 35.527344 72.828125 38.796875 71.753906 41.957031 70.71875 C 42.5 70.539062 43.039062 70.363281 43.574219 70.191406 C 51.164062 67.765625 58.972656 66.535156 66.785156 66.535156 C 73.929688 66.535156 80.890625 67.566406 87.472656 69.601562 C 94.132812 71.660156 100.25 74.699219 105.660156 78.636719 " fill-opacity="1" fill-rule="nonzero"/><path fill="#2662ff" d="M 143.53125 28.09375 L 151.992188 34.363281 C 152.507812 34.746094 152.898438 35.292969 153.105469 35.960938 C 154.453125 40.316406 155.796875 44.675781 157.140625 49.035156 C 157.238281 49.351562 157.457031 50.050781 157.617188 50.296875 L 149.152344 44.023438 C 148.996094 43.78125 148.777344 43.078125 148.683594 42.765625 C 147.335938 38.402344 145.988281 34.046875 144.644531 29.6875 C 144.4375 29.019531 144.046875 28.472656 143.53125 28.09375 " fill-opacity="1" fill-rule="nonzero"/><path fill="#2662ff" d="M 185.914062 88.320312 L 194.375 94.589844 C 190.390625 91.632812 185.890625 90.007812 181.480469 90.007812 C 180.371094 90.007812 179.257812 90.109375 178.164062 90.3125 C 171.253906 91.582031 165.003906 96.589844 158.390625 101.890625 C 156 103.800781 153.53125 105.78125 151.011719 107.585938 C 146.992188 110.464844 140.96875 113.898438 135.078125 113.898438 C 132.90625 113.898438 130.910156 113.429688 129.144531 112.503906 C 128.546875 112.1875 127.992188 111.835938 127.476562 111.453125 L 119.015625 105.183594 C 119.53125 105.566406 120.085938 105.917969 120.683594 106.230469 C 122.445312 107.15625 124.445312 107.628906 126.617188 107.628906 C 132.507812 107.628906 138.53125 104.191406 142.550781 101.316406 C 145.070312 99.511719 147.542969 97.53125 149.929688 95.617188 C 156.542969 90.316406 162.792969 85.3125 169.703125 84.039062 C 170.796875 83.839844 171.910156 83.734375 173.019531 83.734375 C 177.429688 83.734375 181.929688 85.363281 185.914062 88.320312 " fill-opacity="1" fill-rule="nonzero"/><path fill="#2662ff" d="M 258.714844 51.648438 L 267.175781 57.917969 C 268.082031 58.59375 268.582031 59.765625 268.417969 61.101562 C 267.992188 64.546875 268.527344 66.859375 269.164062 67.328125 L 260.703125 61.058594 C 260.066406 60.585938 259.53125 58.277344 259.957031 54.832031 C 260.121094 53.496094 259.621094 52.320312 258.714844 51.648438 " fill-opacity="1" fill-rule="nonzero"/><path fill="#2662ff" d="M 219.691406 204.667969 L 228.152344 210.9375 C 227.585938 210.519531 226.464844 210.707031 225.453125 210.707031 C 224.824219 210.707031 224.265625 210.636719 223.742188 210.496094 C 222.921875 210.28125 221.921875 210.015625 221.132812 209.429688 L 212.671875 203.160156 C 213.460938 203.742188 214.460938 204.007812 215.28125 204.226562 C 215.800781 204.367188 216.363281 204.433594 216.992188 204.433594 C 218.003906 204.433594 219.125 204.25 219.691406 204.667969 " fill-opacity="1" fill-rule="nonzero"/><path fill="#2662ff" d="M 255.851562 303.789062 L 264.3125 310.058594 C 263.644531 309.566406 262.914062 309.097656 262.160156 308.609375 C 261.347656 308.085938 260.511719 307.550781 259.6875 306.941406 L 251.226562 300.667969 C 252.050781 301.277344 252.882812 301.816406 253.699219 302.339844 C 254.453125 302.824219 255.183594 303.292969 255.851562 303.789062 " fill-opacity="1" fill-rule="nonzero"/><path fill="#2662ff" d="M 112.84375 27.476562 C 141.425781 27.476562 141.671875 27.488281 141.847656 27.496094 C 143.175781 27.566406 144.25 28.410156 144.644531 29.6875 C 145.988281 34.046875 147.335938 38.402344 148.683594 42.765625 C 148.777344 43.078125 148.996094 43.78125 149.152344 44.023438 C 149.40625 44.109375 150.050781 44.148438 150.335938 44.167969 C 168.589844 45.347656 186.835938 46.523438 205.078125 47.703125 C 222.410156 48.820312 239.738281 49.9375 257.066406 51.058594 C 258.945312 51.179688 260.207031 52.820312 259.957031 54.832031 C 259.484375 58.667969 260.199219 61.09375 260.921875 61.144531 C 262.449219 59.90625 263.363281 57.542969 263.53125 55.5 C 263.566406 55.109375 263.59375 54.722656 263.625 54.324219 C 263.964844 49.835938 264.429688 43.6875 269.417969 39.992188 C 271.347656 38.558594 273.527344 37.832031 275.898438 37.832031 C 278.527344 37.832031 280.984375 38.703125 283.359375 39.542969 C 285.0625 40.148438 286.671875 40.71875 288.097656 40.878906 C 292.523438 41.378906 295.679688 44.886719 295.953125 49.609375 C 296.207031 54.015625 296.628906 58.441406 297.039062 62.71875 C 298.308594 76.066406 297.402344 90.347656 296.53125 104.160156 C 295.722656 116.910156 294.886719 130.09375 295.851562 142.039062 C 296.925781 155.304688 300.003906 165.367188 305.539062 173.710938 C 314.003906 186.464844 319.882812 201.113281 323.015625 217.238281 C 326.144531 233.367188 326.34375 250.046875 323.605469 266.804688 C 323.4375 267.835938 323.269531 268.957031 323.09375 270.140625 C 321.839844 278.484375 320.277344 288.867188 315.085938 295.699219 C 314.214844 296.847656 313.300781 297.847656 312.414062 298.820312 C 311.722656 299.574219 311.074219 300.289062 310.507812 301.003906 C 308.378906 303.683594 306.828125 307.171875 305.898438 311.382812 C 305.644531 312.511719 305.566406 314 305.480469 315.574219 C 305.320312 318.488281 305.140625 321.789062 303.738281 324.691406 C 301.789062 328.730469 296.722656 332.421875 294.636719 333.820312 C 290.054688 336.902344 284.808594 338.402344 278.609375 338.402344 C 276.71875 338.402344 274.75 338.265625 272.585938 337.984375 C 268.375 337.4375 265.367188 336.035156 263.398438 333.695312 C 260.128906 329.804688 260.34375 324.035156 260.789062 320.027344 C 261.601562 312.695312 261.21875 308.515625 256.832031 304.582031 C 255.929688 303.773438 254.84375 303.078125 253.699219 302.339844 C 252.652344 301.664062 251.570312 300.96875 250.523438 300.125 C 245.203125 295.835938 242.546875 288.988281 240.414062 283.484375 C 236.878906 274.390625 222.503906 237.371094 218.84375 227.957031 C 217.3125 224.019531 215.40625 219.117188 216.089844 213.507812 C 216.464844 210.460938 217.8125 207.269531 219.789062 204.753906 C 219.261719 204.226562 218.066406 204.433594 216.992188 204.433594 C 216.363281 204.433594 215.800781 204.367188 215.28125 204.226562 C 213.429688 203.734375 210.671875 203.003906 211.460938 198.894531 C 211.523438 198.550781 211.601562 198.164062 211.636719 197.539062 C 211.804688 194.476562 212.554688 191.667969 213.28125 188.953125 C 213.664062 187.503906 214.03125 186.132812 214.296875 184.769531 C 214.882812 181.761719 215.46875 178.75 216.054688 175.742188 C 216.625 172.820312 217.191406 169.902344 217.761719 166.980469 C 218.179688 164.824219 218.761719 162.585938 219.371094 160.210938 C 220.539062 155.6875 221.75 151.007812 221.675781 147.414062 C 221.5 139.273438 216.828125 133.703125 211.878906 127.804688 C 208.617188 123.917969 205.246094 119.898438 202.960938 114.929688 C 202.554688 114.042969 202.152344 113.152344 201.746094 112.261719 C 198.550781 105.234375 195.25 97.96875 190.382812 92.441406 C 185.507812 86.910156 179.179688 83.734375 173.019531 83.734375 C 171.910156 83.734375 170.796875 83.839844 169.703125 84.039062 C 162.792969 85.3125 156.542969 90.316406 149.929688 95.617188 C 147.542969 97.53125 145.070312 99.511719 142.550781 101.316406 C 138.53125 104.191406 132.507812 107.628906 126.617188 107.628906 C 124.445312 107.628906 122.445312 107.15625 120.683594 106.230469 C 114.765625 103.121094 112.945312 96.359375 111.332031 90.398438 C 110.019531 85.515625 108.773438 80.90625 105.660156 78.636719 C 100.25 74.699219 94.132812 71.660156 87.472656 69.601562 C 80.890625 67.566406 73.929688 66.535156 66.785156 66.535156 C 58.972656 66.535156 51.164062 67.765625 43.574219 70.191406 C 43.039062 70.363281 42.5 70.539062 41.957031 70.71875 C 38.796875 71.753906 35.527344 72.828125 32.203125 73.144531 C 30.53125 73.160156 29.394531 72.375 28.941406 71.105469 C 27.832031 68.019531 29.789062 65.078125 30.957031 63.324219 C 30.046875 59.5 30.875 56.554688 31.476562 54.402344 C 31.695312 53.636719 32.054688 52.347656 31.960938 52.015625 C 30.472656 49.765625 30.058594 48.660156 29.695312 47.679688 C 29.351562 46.757812 29.027344 45.882812 28.621094 45.480469 C 27.410156 44.546875 26.703125 44.03125 26.09375 43.226562 C 23.492188 39.832031 25.050781 35.027344 25.796875 32.71875 C 26.722656 29.890625 28.804688 27.90625 31.234375 27.535156 C 32.261719 27.492188 80.65625 27.476562 112.84375 27.476562 " fill-opacity="1" fill-rule="nonzero"/><path fill="#2662ff" d="M 292.324219 42.515625 L 300.785156 48.789062 C 302.890625 50.347656 304.238281 52.867188 304.414062 55.882812 C 304.667969 60.285156 305.089844 64.710938 305.5 68.992188 C 306.769531 82.335938 305.863281 96.617188 304.992188 110.429688 C 304.183594 123.183594 303.347656 136.367188 304.3125 148.3125 C 305.386719 161.574219 308.460938 171.640625 313.996094 179.980469 C 322.464844 192.738281 328.34375 207.382812 331.476562 223.507812 C 334.605469 239.640625 334.804688 256.316406 332.070312 273.078125 C 331.902344 274.109375 331.730469 275.230469 331.554688 276.414062 C 330.300781 284.757812 328.742188 295.140625 323.542969 301.96875 C 322.675781 303.117188 321.761719 304.121094 320.875 305.089844 C 320.1875 305.847656 319.535156 306.5625 318.96875 307.277344 C 316.839844 309.957031 315.289062 313.445312 314.359375 317.65625 C 314.109375 318.785156 314.027344 320.269531 313.941406 321.847656 C 313.78125 324.761719 313.601562 328.058594 312.199219 330.960938 C 310.25 335 305.1875 338.695312 303.097656 340.09375 C 298.515625 343.175781 293.269531 344.675781 287.070312 344.675781 C 285.179688 344.675781 283.210938 344.535156 281.046875 344.253906 C 277.917969 343.851562 275.457031 342.972656 273.589844 341.589844 L 265.128906 335.316406 C 266.996094 336.699219 269.457031 337.578125 272.585938 337.984375 C 274.75 338.265625 276.71875 338.402344 278.609375 338.402344 C 284.808594 338.402344 290.054688 336.902344 294.636719 333.820312 C 296.722656 332.421875 301.789062 328.730469 303.738281 324.691406 C 305.140625 321.789062 305.320312 318.488281 305.480469 315.574219 C 305.566406 314 305.644531 312.511719 305.898438 311.382812 C 306.828125 307.171875 308.378906 303.683594 310.507812 301.003906 C 311.074219 300.289062 311.722656 299.574219 312.414062 298.820312 C 313.300781 297.847656 314.214844 296.847656 315.085938 295.699219 C 320.277344 288.867188 321.839844 278.484375 323.09375 270.140625 C 323.269531 268.957031 323.4375 267.835938 323.605469 266.804688 C 326.34375 250.046875 326.144531 233.367188 323.015625 217.238281 C 319.882812 201.113281 314.003906 186.464844 305.539062 173.710938 C 300.003906 165.367188 296.925781 155.304688 295.851562 142.039062 C 294.886719 130.09375 295.722656 116.910156 296.53125 104.160156 C 297.402344 90.347656 298.308594 76.066406 297.039062 62.71875 C 296.628906 58.441406 296.207031 54.015625 295.953125 49.609375 C 295.777344 46.597656 294.429688 44.074219 292.324219 42.515625 " fill-opacity="1" fill-rule="nonzero"/><path fill="#ffffff" d="M 112.507812 31.425781 C 128.792969 31.425781 141.082031 31.429688 141.332031 31.445312 C 142.675781 35.800781 144.023438 40.15625 145.367188 44.519531 C 145.699219 45.601562 146.074219 46.742188 146.941406 47.386719 C 147.726562 47.960938 148.78125 48.050781 149.789062 48.113281 C 185.367188 50.410156 220.9375 52.703125 256.511719 55 C 255.992188 59.242188 256.382812 64.804688 260.34375 65.089844 C 264.527344 65.101562 267.074219 59.574219 267.425781 55.34375 C 267.785156 51.015625 267.839844 45.796875 271.449219 43.121094 C 272.761719 42.144531 274.144531 41.785156 275.5625 41.785156 C 279.359375 41.78125 283.457031 44.367188 287.386719 44.808594 C 290.261719 45.132812 292.308594 47.460938 292.484375 50.503906 C 292.742188 54.945312 293.160156 59.355469 293.582031 63.753906 C 297.179688 101.515625 282.960938 146.679688 302.621094 176.304688 C 319.152344 201.21875 325.53125 234.078125 320.1875 266.8125 C 318.910156 274.636719 317.71875 286.875 312.546875 293.679688 C 311.152344 295.519531 309.457031 297.101562 308.027344 298.910156 C 305.1875 302.484375 303.480469 306.828125 302.523438 311.15625 C 301.695312 314.875 302.375 320.023438 300.707031 323.472656 C 299.425781 326.132812 295.550781 329.179688 293.210938 330.753906 C 288.84375 333.6875 284.0625 334.632812 279.371094 334.632812 C 277.484375 334.632812 275.609375 334.480469 273.785156 334.246094 C 271.042969 333.886719 268.277344 333.066406 266.539062 331.003906 C 264.226562 328.253906 264.226562 323.960938 264.667969 319.996094 C 265.535156 312.191406 265.203125 306.539062 259.679688 301.585938 C 257.71875 299.828125 255.296875 298.683594 253.253906 297.03125 C 248.660156 293.328125 246.296875 287.40625 244.078125 281.6875 C 236.890625 263.179688 229.699219 244.664062 222.511719 226.15625 C 220.96875 222.203125 219.410156 218.046875 219.964844 213.515625 C 220.515625 208.988281 223.957031 204.050781 228.28125 203.5 C 227.746094 201.792969 227.203125 200.09375 226.65625 198.390625 C 224.550781 198.863281 220.21875 200.664062 217.757812 200.664062 C 214.398438 199.882812 215.355469 200.421875 215.535156 197.277344 C 215.761719 193.117188 217.320312 189.191406 218.121094 185.074219 C 219.277344 179.144531 220.433594 173.21875 221.589844 167.285156 C 222.808594 161.03125 225.703125 152.996094 225.578125 146.851562 C 225.253906 131.742188 212.113281 125.046875 206.550781 112.945312 C 202.789062 104.765625 199.273438 96.277344 193.476562 89.699219 C 188.523438 84.074219 181.507812 79.96875 173.785156 79.96875 C 172.480469 79.96875 171.15625 80.085938 169.816406 80.332031 C 159.152344 82.296875 150.386719 91.605469 141.007812 98.324219 C 136.863281 101.292969 131.859375 103.859375 127.382812 103.859375 C 125.8125 103.859375 124.308594 103.542969 122.925781 102.816406 C 113.804688 98.019531 116.574219 81.5 108.269531 75.453125 C 96.789062 67.097656 82.46875 62.765625 67.550781 62.765625 C 59.492188 62.765625 51.261719 64.03125 43.210938 66.605469 C 39.738281 67.714844 36.089844 69.0625 32.636719 69.390625 C 31.75 66.914062 36.433594 63.667969 35.566406 61.191406 C 35.417969 60.78125 35.144531 60.453125 34.949219 60.070312 C 33.515625 57.28125 36.800781 53.105469 35.605469 50.171875 C 35.347656 49.527344 34.886719 49.023438 34.519531 48.445312 C 33.347656 46.617188 33.097656 44.09375 31.574219 42.585938 C 30.871094 41.882812 29.929688 41.445312 29.324219 40.652344 C 27.949219 38.855469 28.699219 35.984375 29.492188 33.542969 C 29.820312 32.546875 30.476562 31.59375 31.445312 31.445312 C 33.867188 31.441406 79.949219 31.425781 112.507812 31.425781 " fill-opacity="1" fill-rule="nonzero"/><g clip-path="url(#ee0c913c21)"><path fill="#e21218" d="M 293.09375 282.398438 C 293.09375 287.84375 301.320312 299.808594 304.144531 303.757812 C 304.371094 304.078125 304.726562 304.238281 305.082031 304.238281 L 305.082031 270.488281 C 298.460938 270.488281 293.09375 275.820312 293.09375 282.398438 " fill-opacity="1" fill-rule="nonzero"/></g><g clip-path="url(#c2ac3a6420)"><path fill="#c81113" d="M 305.082031 270.488281 L 305.082031 304.238281 C 305.4375 304.238281 305.792969 304.078125 306.019531 303.757812 C 308.84375 299.808594 317.070312 287.84375 317.070312 282.398438 C 317.070312 275.820312 311.703125 270.488281 305.082031 270.488281 " fill-opacity="1" fill-rule="nonzero"/></g><path fill="#cd1a1f" d="M 305.082031 289.128906 C 301.84375 288.910156 299.28125 286.230469 299.28125 282.957031 C 299.28125 279.679688 301.84375 277 305.082031 276.78125 L 305.082031 289.128906 " fill-opacity="1" fill-rule="nonzero"/><path fill="#b7191b" d="M 305.515625 289.144531 C 305.371094 289.144531 305.226562 289.140625 305.082031 289.128906 L 305.082031 276.78125 C 305.226562 276.769531 305.371094 276.765625 305.515625 276.765625 C 308.957031 276.765625 311.746094 279.535156 311.746094 282.957031 C 311.746094 286.375 308.957031 289.144531 305.515625 289.144531 " fill-opacity="1" fill-rule="nonzero"/><path fill="#ffffff" d="M 311.3125 282.527344 C 311.3125 285.945312 308.523438 288.714844 305.082031 288.714844 C 301.640625 288.714844 298.851562 285.945312 298.851562 282.527344 C 298.851562 279.105469 301.640625 276.335938 305.082031 276.335938 C 308.523438 276.335938 311.3125 279.105469 311.3125 282.527344 " fill-opacity="1" fill-rule="nonzero"/><g clip-path="url(#89dec3c0ea)"><path fill="#e21218" d="M 59.070312 45.53125 C 59.070312 50.980469 67.296875 62.945312 70.121094 66.894531 C 70.351562 67.214844 70.703125 67.375 71.058594 67.375 L 71.058594 33.625 C 64.4375 33.625 59.070312 38.957031 59.070312 45.53125 " fill-opacity="1" fill-rule="nonzero"/></g><g clip-path="url(#a90d54a966)"><path fill="#c81113" d="M 71.058594 33.625 L 71.058594 67.375 C 71.414062 67.375 71.769531 67.214844 72 66.894531 C 74.824219 62.945312 83.046875 50.980469 83.046875 45.53125 C 83.046875 38.957031 77.679688 33.625 71.058594 33.625 " fill-opacity="1" fill-rule="nonzero"/></g><path fill="#cd1a1f" d="M 71.058594 52.265625 C 67.820312 52.046875 65.261719 49.367188 65.261719 46.089844 C 65.261719 42.816406 67.820312 40.136719 71.058594 39.917969 L 71.058594 52.265625 " fill-opacity="1" fill-rule="nonzero"/><path fill="#b7191b" d="M 71.492188 52.28125 C 71.347656 52.28125 71.203125 52.277344 71.058594 52.265625 L 71.058594 39.917969 C 71.203125 39.90625 71.347656 39.902344 71.492188 39.902344 C 74.933594 39.902344 77.722656 42.671875 77.722656 46.089844 C 77.722656 49.511719 74.933594 52.28125 71.492188 52.28125 " fill-opacity="1" fill-rule="nonzero"/><path fill="#ffffff" d="M 77.292969 45.660156 C 77.292969 49.082031 74.5 51.851562 71.058594 51.851562 C 67.617188 51.851562 64.828125 49.082031 64.828125 45.660156 C 64.828125 42.242188 67.617188 39.472656 71.058594 39.472656 C 74.5 39.472656 77.292969 42.242188 77.292969 45.660156 " fill-opacity="1" fill-rule="nonzero"/><g clip-path="url(#f21e435cea)"><path fill="#e21218" d="M 308.898438 216.824219 C 308.898438 222.269531 317.121094 234.238281 319.945312 238.183594 C 320.175781 238.507812 320.53125 238.667969 320.886719 238.667969 L 320.886719 204.917969 C 314.265625 204.917969 308.898438 210.246094 308.898438 216.824219 " fill-opacity="1" fill-rule="nonzero"/></g><g clip-path="url(#2752f3de18)"><path fill="#c81113" d="M 320.886719 204.917969 L 320.886719 238.667969 C 321.238281 238.667969 321.59375 238.507812 321.824219 238.183594 C 324.648438 234.238281 332.871094 222.269531 332.871094 216.824219 C 332.871094 210.246094 327.503906 204.917969 320.886719 204.917969 " fill-opacity="1" fill-rule="nonzero"/></g><path fill="#cd1a1f" d="M 320.886719 223.558594 C 317.644531 223.335938 315.085938 220.65625 315.085938 217.382812 C 315.085938 214.109375 317.644531 211.429688 320.886719 211.207031 L 320.886719 223.558594 " fill-opacity="1" fill-rule="nonzero"/><path fill="#b7191b" d="M 321.316406 223.574219 C 321.171875 223.574219 321.027344 223.566406 320.886719 223.558594 L 320.886719 211.207031 C 321.027344 211.199219 321.171875 211.191406 321.316406 211.191406 C 324.757812 211.191406 327.550781 213.964844 327.550781 217.382812 C 327.550781 220.800781 324.757812 223.574219 321.316406 223.574219 " fill-opacity="1" fill-rule="nonzero"/><path fill="#ffffff" d="M 327.117188 216.953125 C 327.117188 220.371094 324.328125 223.144531 320.886719 223.144531 C 317.441406 223.144531 314.652344 220.371094 314.652344 216.953125 C 314.652344 213.535156 317.441406 210.761719 320.886719 210.761719 C 324.328125 210.761719 327.117188 213.535156 327.117188 216.953125 " fill-opacity="1" fill-rule="nonzero"/><g clip-path="url(#3a98813f18)"><path fill="#e21218" d="M 304.917969 255.160156 C 304.917969 260.605469 313.144531 272.570312 315.96875 276.519531 C 316.199219 276.839844 316.554688 277 316.90625 277 L 316.90625 243.25 C 310.285156 243.25 304.917969 248.582031 304.917969 255.160156 " fill-opacity="1" fill-rule="nonzero"/></g><g clip-path="url(#d76dc1ffb9)"><path fill="#c81113" d="M 316.90625 243.25 L 316.90625 277 C 317.261719 277 317.617188 276.839844 317.847656 276.519531 C 320.671875 272.570312 328.894531 260.605469 328.894531 255.160156 C 328.894531 248.582031 323.527344 243.25 316.90625 243.25 " fill-opacity="1" fill-rule="nonzero"/></g><path fill="#cd1a1f" d="M 316.90625 261.894531 C 313.667969 261.671875 311.109375 258.992188 311.109375 255.71875 C 311.109375 252.441406 313.667969 249.761719 316.90625 249.542969 L 316.90625 261.894531 " fill-opacity="1" fill-rule="nonzero"/><path fill="#b7191b" d="M 317.339844 261.90625 C 317.195312 261.90625 317.050781 261.902344 316.90625 261.894531 L 316.90625 249.542969 C 317.050781 249.53125 317.195312 249.527344 317.339844 249.527344 C 320.78125 249.527344 323.570312 252.300781 323.570312 255.71875 C 323.570312 259.136719 320.78125 261.90625 317.339844 261.90625 " fill-opacity="1" fill-rule="nonzero"/><path fill="#ffffff" d="M 323.140625 255.289062 C 323.140625 258.707031 320.347656 261.476562 316.90625 261.476562 C 313.464844 261.476562 310.675781 258.707031 310.675781 255.289062 C 310.675781 251.867188 313.464844 249.097656 316.90625 249.097656 C 320.347656 249.097656 323.140625 251.867188 323.140625 255.289062 " fill-opacity="1" fill-rule="nonzero"/></svg>