<svg xmlns="http://www.w3.org/2000/svg" xmlns:xlink="http://www.w3.org/1999/xlink" width="250" zoomAndPan="magnify" viewBox="0 0 187.5 112.499997" height="150" preserveAspectRatio="xMidYMid meet" version="1.0"><defs><g/><clipPath id="81a959f075"><path d="M 0.171875 38.484375 L 39.386719 38.484375 L 39.386719 73.476562 L 0.171875 73.476562 Z M 0.171875 38.484375 " clip-rule="nonzero"/></clipPath></defs><g clip-path="url(#81a959f075)"><path fill="#2463eb" d="M 38.414062 43.457031 C 35.5 39.804688 29.316406 41.652344 29.316406 41.652344 L 29.9375 40.503906 C 28.34375 39.125 23.414062 37.132812 17.148438 39.804688 C 9.625 43.011719 6.421875 49.679688 0.171875 54.335938 C 0.171875 54.335938 3.460938 54.546875 6.367188 53.074219 C 4.875 55.070312 3.503906 58.304688 4.011719 63.242188 C 4.011719 63.242188 4.964844 60.527344 6.417969 59.199219 C 5.824219 62.65625 7.421875 68.625 10.722656 70.601562 C 10.25 69.207031 10.046875 67.699219 10.042969 66.203125 C 12.03125 71.0625 17.027344 73.148438 22.261719 73.476562 C 28.5625 73.871094 34.835938 70.988281 37.394531 65.234375 C 34.90625 67.4375 31.652344 68.910156 25.886719 68.644531 C 17.511719 68.257812 15.394531 59.269531 15.425781 57.070312 C 14.699219 57.9375 14.203125 59.085938 14.203125 59.085938 C 13.378906 53.101562 17.363281 42.886719 26.050781 41.710938 C 22.539062 43.269531 19.390625 46.101562 18 51.808594 C 18 51.808594 18.8125 51.183594 19.636719 50.78125 C 17.777344 59.207031 23.273438 63.390625 28.109375 63.035156 C 23.609375 61.496094 24.535156 54.703125 27.257812 52.183594 C 25.644531 52.84375 24.097656 53.8125 24.097656 53.8125 C 26.867188 49.550781 31.5625 47.832031 34.085938 47.652344 C 37.8125 47.386719 37.851562 49.996094 37.851562 49.996094 C 37.851562 49.996094 40.9375 46.617188 38.414062 43.457031 " fill-opacity="1" fill-rule="nonzero"/></g><g fill="#2463eb" fill-opacity="1"><g transform="translate(46.202769, 57.301779)"><g><path d="M 7.09375 -8.140625 L 13.09375 -8.140625 L 13.09375 -0.640625 C 11.457031 -0.0859375 9.664062 0.1875 7.71875 0.1875 C 5.570312 0.1875 3.910156 -0.429688 2.734375 -1.671875 C 1.566406 -2.921875 0.984375 -4.695312 0.984375 -7 C 0.984375 -9.238281 1.625 -10.984375 2.90625 -12.234375 C 4.1875 -13.484375 5.984375 -14.109375 8.296875 -14.109375 C 9.171875 -14.109375 9.992188 -14.023438 10.765625 -13.859375 C 11.546875 -13.691406 12.226562 -13.484375 12.8125 -13.234375 L 11.609375 -10.28125 C 10.609375 -10.78125 9.507812 -11.03125 8.3125 -11.03125 C 7.21875 -11.03125 6.367188 -10.671875 5.765625 -9.953125 C 5.171875 -9.242188 4.875 -8.222656 4.875 -6.890625 C 4.875 -5.597656 5.144531 -4.609375 5.6875 -3.921875 C 6.226562 -3.242188 7.007812 -2.90625 8.03125 -2.90625 C 8.582031 -2.90625 9.097656 -2.957031 9.578125 -3.0625 L 9.578125 -5.234375 L 7.09375 -5.234375 Z M 7.09375 -8.140625 "/></g></g></g><g fill="#2463eb" fill-opacity="1"><g transform="translate(64.244988, 57.301779)"><g><path d="M 13.328125 -13.90625 L 13.328125 -5.53125 C 13.328125 -3.71875 12.8125 -2.3125 11.78125 -1.3125 C 10.75 -0.3125 9.265625 0.1875 7.328125 0.1875 C 5.429688 0.1875 3.972656 -0.296875 2.953125 -1.265625 C 1.929688 -2.234375 1.421875 -3.628906 1.421875 -5.453125 L 1.421875 -13.90625 L 5.203125 -13.90625 L 5.203125 -5.75 C 5.203125 -4.757812 5.382812 -4.039062 5.75 -3.59375 C 6.125 -3.15625 6.664062 -2.9375 7.375 -2.9375 C 8.144531 -2.9375 8.703125 -3.15625 9.046875 -3.59375 C 9.398438 -4.039062 9.578125 -4.765625 9.578125 -5.765625 L 9.578125 -13.90625 Z M 13.328125 -13.90625 "/></g></g></g><g fill="#2463eb" fill-opacity="1"><g transform="translate(82.610577, 57.301779)"><g><path d="M 10.03125 0 L 9.359375 -2.609375 L 4.828125 -2.609375 L 4.125 0 L 0 0 L 4.53125 -13.96875 L 9.546875 -13.96875 L 14.140625 0 Z M 8.578125 -5.6875 L 7.96875 -7.96875 C 7.832031 -8.476562 7.660156 -9.132812 7.453125 -9.9375 C 7.253906 -10.75 7.125 -11.328125 7.0625 -11.671875 C 7.007812 -11.347656 6.898438 -10.816406 6.734375 -10.078125 C 6.566406 -9.335938 6.191406 -7.875 5.609375 -5.6875 Z M 8.578125 -5.6875 "/></g></g></g><g fill="#2463eb" fill-opacity="1"><g transform="translate(100.376984, 57.301779)"><g><path d="M 5.265625 -5.0625 L 5.265625 0 L 1.5 0 L 1.5 -13.90625 L 6.0625 -13.90625 C 9.84375 -13.90625 11.734375 -12.535156 11.734375 -9.796875 C 11.734375 -8.179688 10.945312 -6.9375 9.375 -6.0625 L 13.421875 0 L 9.15625 0 L 6.21875 -5.0625 Z M 5.265625 -7.890625 L 5.96875 -7.890625 C 7.28125 -7.890625 7.9375 -8.46875 7.9375 -9.625 C 7.9375 -10.582031 7.289062 -11.0625 6 -11.0625 L 5.265625 -11.0625 Z M 5.265625 -7.890625 "/></g></g></g><g fill="#2463eb" fill-opacity="1"><g transform="translate(117.18279, 57.301779)"><g><path d="M 13.3125 -7.25 C 13.3125 -4.925781 12.671875 -3.132812 11.390625 -1.875 C 10.109375 -0.625 8.3125 0 6 0 L 1.5 0 L 1.5 -13.90625 L 6.3125 -13.90625 C 8.550781 -13.90625 10.273438 -13.332031 11.484375 -12.1875 C 12.703125 -11.050781 13.3125 -9.40625 13.3125 -7.25 Z M 9.40625 -7.109375 C 9.40625 -8.390625 9.148438 -9.335938 8.640625 -9.953125 C 8.140625 -10.566406 7.378906 -10.875 6.359375 -10.875 L 5.265625 -10.875 L 5.265625 -3.078125 L 6.09375 -3.078125 C 7.238281 -3.078125 8.078125 -3.410156 8.609375 -4.078125 C 9.140625 -4.742188 9.40625 -5.753906 9.40625 -7.109375 Z M 9.40625 -7.109375 "/></g></g></g><g fill="#2463eb" fill-opacity="1"><g transform="translate(135.101365, 57.301779)"><g><path d="M 1.5 0 L 1.5 -13.90625 L 5.28125 -13.90625 L 5.28125 0 Z M 1.5 0 "/></g></g></g><g fill="#2463eb" fill-opacity="1"><g transform="translate(145.506337, 57.301779)"><g><path d="M 10.03125 0 L 9.359375 -2.609375 L 4.828125 -2.609375 L 4.125 0 L 0 0 L 4.53125 -13.96875 L 9.546875 -13.96875 L 14.140625 0 Z M 8.578125 -5.6875 L 7.96875 -7.96875 C 7.832031 -8.476562 7.660156 -9.132812 7.453125 -9.9375 C 7.253906 -10.75 7.125 -11.328125 7.0625 -11.671875 C 7.007812 -11.347656 6.898438 -10.816406 6.734375 -10.078125 C 6.566406 -9.335938 6.191406 -7.875 5.609375 -5.6875 Z M 8.578125 -5.6875 "/></g></g></g><g fill="#2463eb" fill-opacity="1"><g transform="translate(163.272737, 57.301779)"><g><path d="M 14.75 0 L 9.8125 0 L 4.734375 -9.796875 L 4.65625 -9.796875 C 4.769531 -8.253906 4.828125 -7.078125 4.828125 -6.265625 L 4.828125 0 L 1.5 0 L 1.5 -13.90625 L 6.40625 -13.90625 L 11.46875 -4.25 L 11.53125 -4.25 C 11.4375 -5.644531 11.390625 -6.769531 11.390625 -7.625 L 11.390625 -13.90625 L 14.75 -13.90625 Z M 14.75 0 "/></g></g></g><g fill="#2463eb" fill-opacity="1"><g transform="translate(48.900451, 71.264246)"><g><path d="M 0.796875 0 L 0.796875 -7.359375 L 2.78125 -7.359375 L 2.78125 -1.609375 L 5.625 -1.609375 L 5.625 0 Z M 0.796875 0 "/></g></g></g><g fill="#2463eb" fill-opacity="1"><g transform="translate(59.382639, 71.264246)"><g><path d="M 0.796875 0 L 0.796875 -7.359375 L 2.796875 -7.359375 L 2.796875 0 Z M 0.796875 0 "/></g></g></g><g fill="#2463eb" fill-opacity="1"><g transform="translate(67.452532, 71.264246)"><g><path d="M 2.75 0 L 0.796875 0 L 0.796875 -7.359375 L 5.140625 -7.359375 L 5.140625 -5.765625 L 2.75 -5.765625 L 2.75 -4.359375 L 4.953125 -4.359375 L 4.953125 -2.765625 L 2.75 -2.765625 Z M 2.75 0 "/></g></g></g><g fill="#2463eb" fill-opacity="1"><g transform="translate(77.491543, 71.264246)"><g><path d="M 5.171875 0 L 0.796875 0 L 0.796875 -7.359375 L 5.171875 -7.359375 L 5.171875 -5.765625 L 2.78125 -5.765625 L 2.78125 -4.609375 L 4.984375 -4.609375 L 4.984375 -3.015625 L 2.78125 -3.015625 L 2.78125 -1.625 L 5.171875 -1.625 Z M 5.171875 0 "/></g></g></g><g fill="#2463eb" fill-opacity="1"><g transform="translate(87.631275, 71.264246)"><g/></g></g><g fill="#2463eb" fill-opacity="1"><g transform="translate(94.789627, 71.264246)"><g><path d="M 5.3125 0 L 4.953125 -1.375 L 2.5625 -1.375 L 2.1875 0 L 0 0 L 2.40625 -7.390625 L 5.0625 -7.390625 L 7.484375 0 Z M 4.53125 -3.015625 L 4.21875 -4.21875 C 4.144531 -4.488281 4.054688 -4.835938 3.953125 -5.265625 C 3.847656 -5.691406 3.773438 -5.992188 3.734375 -6.171875 C 3.710938 -6.003906 3.65625 -5.722656 3.5625 -5.328125 C 3.46875 -4.941406 3.269531 -4.171875 2.96875 -3.015625 Z M 4.53125 -3.015625 "/></g></g></g><g fill="#2463eb" fill-opacity="1"><g transform="translate(106.757474, 71.264246)"><g><path d="M 7.046875 -3.84375 C 7.046875 -2.613281 6.707031 -1.664062 6.03125 -1 C 5.351562 -0.332031 4.398438 0 3.171875 0 L 0.796875 0 L 0.796875 -7.359375 L 3.34375 -7.359375 C 4.519531 -7.359375 5.429688 -7.054688 6.078125 -6.453125 C 6.722656 -5.847656 7.046875 -4.976562 7.046875 -3.84375 Z M 4.984375 -3.765625 C 4.984375 -4.441406 4.847656 -4.941406 4.578125 -5.265625 C 4.304688 -5.585938 3.898438 -5.75 3.359375 -5.75 L 2.78125 -5.75 L 2.78125 -1.625 L 3.234375 -1.625 C 3.835938 -1.625 4.28125 -1.800781 4.5625 -2.15625 C 4.84375 -2.507812 4.984375 -3.046875 4.984375 -3.765625 Z M 4.984375 -3.765625 "/></g></g></g><g fill="#2463eb" fill-opacity="1"><g transform="translate(118.805899, 71.264246)"><g><path d="M 4.921875 -7.359375 L 7.15625 -7.359375 L 4.75 0 L 2.40625 0 L 0 -7.359375 L 2.234375 -7.359375 L 3.234375 -3.625 C 3.441406 -2.800781 3.554688 -2.222656 3.578125 -1.890625 C 3.597656 -2.128906 3.644531 -2.425781 3.71875 -2.78125 C 3.789062 -3.132812 3.851562 -3.410156 3.90625 -3.609375 Z M 4.921875 -7.359375 "/></g></g></g><g fill="#2463eb" fill-opacity="1"><g transform="translate(130.441363, 71.264246)"><g><path d="M 0.796875 0 L 0.796875 -7.359375 L 2.796875 -7.359375 L 2.796875 0 Z M 0.796875 0 "/></g></g></g><g fill="#2463eb" fill-opacity="1"><g transform="translate(138.511255, 71.264246)"><g><path d="M 5.609375 -2.234375 C 5.609375 -1.773438 5.492188 -1.367188 5.265625 -1.015625 C 5.035156 -0.660156 4.703125 -0.382812 4.265625 -0.1875 C 3.828125 0 3.3125 0.09375 2.71875 0.09375 C 2.226562 0.09375 1.816406 0.0625 1.484375 0 C 1.148438 -0.0703125 0.804688 -0.191406 0.453125 -0.359375 L 0.453125 -2.140625 C 0.828125 -1.941406 1.21875 -1.785156 1.625 -1.671875 C 2.039062 -1.566406 2.421875 -1.515625 2.765625 -1.515625 C 3.054688 -1.515625 3.269531 -1.566406 3.40625 -1.671875 C 3.550781 -1.773438 3.625 -1.90625 3.625 -2.0625 C 3.625 -2.164062 3.59375 -2.253906 3.53125 -2.328125 C 3.476562 -2.398438 3.390625 -2.472656 3.265625 -2.546875 C 3.148438 -2.628906 2.828125 -2.789062 2.296875 -3.03125 C 1.816406 -3.25 1.453125 -3.457031 1.203125 -3.65625 C 0.960938 -3.863281 0.785156 -4.097656 0.671875 -4.359375 C 0.554688 -4.628906 0.5 -4.945312 0.5 -5.3125 C 0.5 -5.988281 0.742188 -6.515625 1.234375 -6.890625 C 1.734375 -7.273438 2.414062 -7.46875 3.28125 -7.46875 C 4.039062 -7.46875 4.816406 -7.289062 5.609375 -6.9375 L 5 -5.40625 C 4.3125 -5.71875 3.71875 -5.875 3.21875 -5.875 C 2.957031 -5.875 2.769531 -5.828125 2.65625 -5.734375 C 2.539062 -5.648438 2.484375 -5.539062 2.484375 -5.40625 C 2.484375 -5.257812 2.554688 -5.128906 2.703125 -5.015625 C 2.847656 -4.898438 3.253906 -4.691406 3.921875 -4.390625 C 4.554688 -4.109375 4.992188 -3.800781 5.234375 -3.46875 C 5.484375 -3.144531 5.609375 -2.734375 5.609375 -2.234375 Z M 5.609375 -2.234375 "/></g></g></g><g fill="#2463eb" fill-opacity="1"><g transform="translate(148.943083, 71.264246)"><g><path d="M 7.6875 -3.6875 C 7.6875 -2.445312 7.378906 -1.503906 6.765625 -0.859375 C 6.160156 -0.222656 5.273438 0.09375 4.109375 0.09375 C 2.953125 0.09375 2.066406 -0.226562 1.453125 -0.875 C 0.835938 -1.519531 0.53125 -2.460938 0.53125 -3.703125 C 0.53125 -4.921875 0.832031 -5.851562 1.4375 -6.5 C 2.050781 -7.15625 2.941406 -7.484375 4.109375 -7.484375 C 5.285156 -7.484375 6.175781 -7.160156 6.78125 -6.515625 C 7.382812 -5.867188 7.6875 -4.925781 7.6875 -3.6875 Z M 2.625 -3.6875 C 2.625 -2.269531 3.117188 -1.5625 4.109375 -1.5625 C 4.609375 -1.5625 4.976562 -1.734375 5.21875 -2.078125 C 5.46875 -2.421875 5.59375 -2.957031 5.59375 -3.6875 C 5.59375 -4.425781 5.46875 -4.96875 5.21875 -5.3125 C 4.96875 -5.664062 4.597656 -5.84375 4.109375 -5.84375 C 3.117188 -5.84375 2.625 -5.125 2.625 -3.6875 Z M 2.625 -3.6875 "/></g></g></g><g fill="#2463eb" fill-opacity="1"><g transform="translate(161.641164, 71.264246)"><g><path d="M 2.78125 -2.671875 L 2.78125 0 L 0.796875 0 L 0.796875 -7.359375 L 3.203125 -7.359375 C 5.203125 -7.359375 6.203125 -6.632812 6.203125 -5.1875 C 6.203125 -4.332031 5.785156 -3.671875 4.953125 -3.203125 L 7.109375 0 L 4.84375 0 L 3.28125 -2.671875 Z M 2.78125 -4.171875 L 3.15625 -4.171875 C 3.851562 -4.171875 4.203125 -4.476562 4.203125 -5.09375 C 4.203125 -5.601562 3.859375 -5.859375 3.171875 -5.859375 L 2.78125 -5.859375 Z M 2.78125 -4.171875 "/></g></g></g><g fill="#2463eb" fill-opacity="1"><g transform="translate(173.100359, 71.264246)"><g><path d="M 5.609375 -2.234375 C 5.609375 -1.773438 5.492188 -1.367188 5.265625 -1.015625 C 5.035156 -0.660156 4.703125 -0.382812 4.265625 -0.1875 C 3.828125 0 3.3125 0.09375 2.71875 0.09375 C 2.226562 0.09375 1.816406 0.0625 1.484375 0 C 1.148438 -0.0703125 0.804688 -0.191406 0.453125 -0.359375 L 0.453125 -2.140625 C 0.828125 -1.941406 1.21875 -1.785156 1.625 -1.671875 C 2.039062 -1.566406 2.421875 -1.515625 2.765625 -1.515625 C 3.054688 -1.515625 3.269531 -1.566406 3.40625 -1.671875 C 3.550781 -1.773438 3.625 -1.90625 3.625 -2.0625 C 3.625 -2.164062 3.59375 -2.253906 3.53125 -2.328125 C 3.476562 -2.398438 3.390625 -2.472656 3.265625 -2.546875 C 3.148438 -2.628906 2.828125 -2.789062 2.296875 -3.03125 C 1.816406 -3.25 1.453125 -3.457031 1.203125 -3.65625 C 0.960938 -3.863281 0.785156 -4.097656 0.671875 -4.359375 C 0.554688 -4.628906 0.5 -4.945312 0.5 -5.3125 C 0.5 -5.988281 0.742188 -6.515625 1.234375 -6.890625 C 1.734375 -7.273438 2.414062 -7.46875 3.28125 -7.46875 C 4.039062 -7.46875 4.816406 -7.289062 5.609375 -6.9375 L 5 -5.40625 C 4.3125 -5.71875 3.71875 -5.875 3.21875 -5.875 C 2.957031 -5.875 2.769531 -5.828125 2.65625 -5.734375 C 2.539062 -5.648438 2.484375 -5.539062 2.484375 -5.40625 C 2.484375 -5.257812 2.554688 -5.128906 2.703125 -5.015625 C 2.847656 -4.898438 3.253906 -4.691406 3.921875 -4.390625 C 4.554688 -4.109375 4.992188 -3.800781 5.234375 -3.46875 C 5.484375 -3.144531 5.609375 -2.734375 5.609375 -2.234375 Z M 5.609375 -2.234375 "/></g></g></g></svg>